<?xml version="1.0" encoding="utf-8"?><svg xmlns="http://www.w3.org/2000/svg" xmlns:xlink="http://www.w3.org/1999/xlink" width="1366" height="134" preserveAspectRatio="xMidYMid" viewBox="0 0 1366 134" style="z-index:1;display:block;background-color:rgb(241, 242, 243);animation-play-state:paused" ><g transform="" style="animation-play-state:paused" ><linearGradient id="lg-0.14415033888315265" x1="0" x2="1" y1="0" y2="0" style="animation-play-state:paused" ><stop stop-color="#00349b" offset="0" style="animation-play-state:paused" ></stop>

  
<stop stop-color="#005cff" offset="1" style="animation-play-state:paused" ></stop></linearGradient>
<path d="M0 0L0 71.57926177978516Q136.60000610351562 91.83148956298828 273.20001220703125 68.17078399658203T546.4000244140625 53.21052551269531T819.5999755859375 53.757015228271484T1092.800048828125 47.25060272216797T1366 30.89229965209961L1366 0z" fill="url(#lg-0.14415033888315265)" opacity="0.4" style="opacity:0.4;animation-play-state:paused" ></path>
<path d="M0 0L0 72.16888427734375Q136.60000610351562 96.60202026367188 273.20001220703125 68.30870819091797T546.4000244140625 70.65841674804688T819.5999755859375 64.97737121582031T1092.800048828125 54.32404708862305T1366 51.910308837890625L1366 0z" fill="url(#lg-0.14415033888315265)" opacity="0.4" style="opacity:0.4;animation-play-state:paused" ></path>
<path d="M0 0L0 67.58499908447266Q136.60000610351562 99.94351959228516 273.20001220703125 66.130615234375T546.4000244140625 58.649471282958984T819.5999755859375 54.92920684814453T1092.800048828125 54.8094367980957T1366 48.27210998535156L1366 0z" fill="url(#lg-0.14415033888315265)" opacity="0.4" style="opacity:0.4;animation-play-state:paused" ></path>
<path d="M0 0L0 63.595855712890625Q136.60000610351562 89.39594268798828 273.20001220703125 59.500205993652344T546.4000244140625 50.317771911621094T819.5999755859375 58.44560241699219T1092.800048828125 38.66219711303711T1366 42.652957916259766L1366 0z" fill="url(#lg-0.14415033888315265)" opacity="0.4" style="opacity:0.4;animation-play-state:paused" ></path>
<path d="M0 0L0 72.6855239868164Q136.60000610351562 97.45381927490234 273.20001220703125 63.5704460144043T546.4000244140625 61.4863166809082T819.5999755859375 52.1679801940918T1092.800048828125 54.397274017333984T1366 40.50271987915039L1366 0z" fill="url(#lg-0.14415033888315265)" opacity="0.4" style="opacity:0.4;animation-play-state:paused" ></path></g></svg>